# xmcd
#
# Track frame offsets: 
#        150
#        24322
#        45321
#        64566
#        82629
#        108553
#        123697
#        138247
#        168097
#        186322
#
# Disc length: 2806 seconds
#
# Revision: 0
# Processed by: cddbd v1.5.2PL0 Copyright (c) Steve Scherf et al.
# Submitted via: ExactAudioCopy v0.95b3
#
DISCID=750af40a
DTITLE=Mighty Reapers - The Hurt Is On
DYEAR=1998
DGENRE=Blues
TTITLE0=You Got To Lose
TTITLE1=The Hurt Is On
TTITLE2=Big Brother
TTITLE3=Wind It Up
TTITLE4=Lonely Part Of Town
TTITLE5=It's All Right
TTITLE6=Come On And Tell Me
TTITLE7=Guess I'll Find Out Later On
TTITLE8=High Cost Of Living
TTITLE9=It Shook Me
EXTD=
EXTT0=
EXTT1=
EXTT2=
EXTT3=
EXTT4=
EXTT5=
EXTT6=
EXTT7=
EXTT8=
EXTT9=
PLAYORDER=
